<svg version="1.1" id="Camada_1" xmlns="http://www.w3.org/2000/svg" x="0" y="0" viewBox="0 0 3000 870.7" style="enable-background:new 0 0 3000 870.7" xml:space="preserve"><style>.st0{fill:#646464}</style><path class="st0" d="M1130.9 370.7c0-92-26.2-139.2-78.7-141.8-20.9-1-41.3 2.3-61.1 10-15.8 5.7-26.5 11.3-32.1 16.9v219.6c33.6 21.1 63.4 30.9 89.3 29.3 55.1-3.6 82.6-48.3 82.6-134zm64.7 3.8c0 46.7-11 85.5-33 116.4-24.6 34.9-58.6 52.9-102.2 53.9-32.8 1-66.7-9.2-101.4-30.8v199.6l-56.3-20.1v-443c9.2-11.3 21.1-21.1 35.5-29.3 33.5-19.5 74.2-29.6 122.1-30.1l.8.8c43.8-.6 77.5 17.4 101.2 53.9 22.3 33.4 33.3 76.3 33.3 128.7zM1539.7 505.5c0 62.7-6.3 106.1-18.8 130.3-12.6 24.1-36.6 43.4-72.1 57.8-28.8 11.3-59.9 17.5-93.3 18.5l-9.3-35.5c33.9-4.6 57.8-9.2 71.7-13.9 27.3-9.2 46-23.4 56.3-42.4 8.3-15.5 12.3-45 12.3-88.6V517c-38.5 17.5-78.8 26.2-121 26.2-27.7 0-52.2-8.7-73.2-26.2-23.6-19-35.5-43.2-35.5-72.4V210.4l56.3-19.3v235.8c0 25.2 8.1 44.6 24.4 58.2 16.3 13.6 37.3 20.1 63.1 19.6 25.8-.6 53.4-10.5 82.8-30.1v-275h56.3v305.9zM1759.6 541.7c-6.7.6-12.9.8-18.5.8-31.8 0-56.7-7.6-74.4-22.8-17.7-15.2-26.5-36.2-26.5-63V235h-38.6v-35.4h38.6v-94l56.2-20v114h63.2V235h-63.2v220.2c0 21.1 5.7 36.1 17 44.8 9.7 7.2 25.2 11.3 46.2 12.4v29.3zM2100.1 537.1h-56.3V319.8c0-22.1-5.2-41.1-15.5-57-11.9-18-28.4-27-49.6-27-25.8 0-58.1 13.6-96.8 40.8V537h-56.3V17.7L1882 0v236.5c36-26.2 75.2-39.3 118-39.3 29.8 0 53.9 10 72.4 30.1 18.5 20 27.8 45 27.8 74.7l-.1 235.1zM2399.6 361.8c0-35.3-6.7-64.5-20.1-87.6-15.9-28.1-40.6-43-74-44.5-61.7 3.6-92.5 47.8-92.5 132.5 0 38.9 6.4 71.3 19.3 97.4 16.5 33.2 41.3 49.6 74.3 49 62-.5 93-49.4 93-146.8zm61.6.4c0 50.3-12.9 92.2-38.6 125.6-28.3 37.4-67.3 56.2-117.1 56.2-49.4 0-87.9-18.8-115.7-56.2-25.2-33.4-37.7-75.3-37.7-125.6 0-47.3 13.6-87.1 40.8-119.5 28.8-34.4 66.6-51.6 113.3-51.6s84.8 17.2 114.1 51.6c27.2 32.4 40.8 72.2 40.9 119.5zM2783.7 537.1h-56.3V307.5c0-25.2-7.6-44.8-22.7-59-15.2-14.1-35.3-20.9-60.5-20.4-26.7.5-52.2 9.2-76.3 26.2v282.8h-56.3V247.3c32.4-23.6 62.2-39 89.4-46.2 25.7-6.7 48.3-10 67.9-10 13.4 0 25.9 1.3 37.7 3.9 22.1 5.1 40.1 14.6 53.9 28.5 15.5 15.4 23.2 33.9 23.2 55.5v258.1z"/><linearGradient id="SVGID_1_" gradientUnits="userSpaceOnUse" x1="-944.157" y1="888.147" x2="-255.195" y2="295.532" gradientTransform="matrix(.5625 0 0 -.568 513.844 544.51)"><stop offset="0" style="stop-color:#5a9fd4"/><stop offset="1" style="stop-color:#306998"/></linearGradient><path d="M347 19.8c-29 .1-56.6 2.6-80.9 6.9-71.7 12.7-84.7 39.2-84.7 88.1v64.6h169.4v21.5H117.7c-49.2 0-92.4 29.6-105.8 85.9-15.6 64.5-16.2 104.8 0 172.2 12 50.2 40.8 85.9 90 85.9h58.2v-77.4c0-55.9 48.4-105.3 105.8-105.3h169.2c47.1 0 84.7-38.8 84.7-86V114.8c0-45.9-38.7-80.4-84.7-88.1-29-4.8-59.2-7-88.1-6.9zm-91.6 52c17.5 0 31.8 14.5 31.8 32.4 0 17.8-14.3 32.2-31.8 32.2-17.6 0-31.8-14.4-31.8-32.2 0-17.9 14.2-32.4 31.8-32.4z" style="fill:url(#SVGID_1_)"/><linearGradient id="SVGID_2_" gradientUnits="userSpaceOnUse" x1="11.316" y1="-63.109" x2="-235.08" y2="285.005" gradientTransform="matrix(.5625 0 0 -.568 513.844 544.51)"><stop offset="0" style="stop-color:#ffd43b"/><stop offset="1" style="stop-color:#ffe873"/></linearGradient><path d="M541 200.8V276c0 58.3-49.4 107.4-105.8 107.4H266c-46.3 0-84.7 39.7-84.7 86v161.3c0 45.9 39.9 72.9 84.7 86 53.6 15.8 105.1 18.6 169.2 0 42.6-12.3 84.7-37.2 84.7-86v-64.6H350.8v-21.5H604.7c49.2 0 67.6-34.3 84.7-85.9 17.7-53.1 16.9-104.1 0-172.2-12.2-49-35.4-85.9-84.7-85.9l-63.7.2zm-95.1 408.6c17.6 0 31.8 14.4 31.8 32.2 0 17.9-14.2 32.4-31.8 32.4-17.5 0-31.8-14.5-31.8-32.4s14.3-32.2 31.8-32.2z" style="fill:url(#SVGID_2_)"/><path class="st0" d="M2893.6 149.4h9.9V87.5h23.4v-7.4h-56.6v7.4h23.4l-.1 61.9m42 0h8.4V92.9l18.3 56.5h9.4l19.1-56.3v56.3h9.2V80.2h-12.2l-20.8 59.3-17.8-59.3h-13.6v69.2"/><radialGradient id="SVGID_3_" cx="-939.91" cy="1402.464" r="183.329" gradientTransform="matrix(0 -.2399 -1.0549 0 1832.26 600.978)" gradientUnits="userSpaceOnUse"><stop offset="0" style="stop-color:#b8b8b8;stop-opacity:.498"/><stop offset="1" style="stop-color:#7f7f7f;stop-opacity:0"/></radialGradient><path d="M579.8 826.7c0 24.3-101.6 44-227 44s-227-19.7-227-44 101.6-44 227-44 227 19.7 227 44z" style="opacity:.4438;fill:url(#SVGID_3_);enable-background:new"/></svg>